<?xml version="1.0" encoding="UTF-8"?>
<svg width="48" height="48" viewBox="0 0 48 48" xmlns="http://www.w3.org/2000/svg">
  <path d="M17.6833333,0 C19.4230303,0 20.8333333,1.41030304 20.8333333,3.15 L20.8333333,36.85 C20.8333333,38.589697 19.4230303,40 17.6833333,40 L3.15,40 C1.41030304,40 0,38.589697 0,36.85 L0,3.15 C0,1.41030304 1.41030304,0 3.15,0 L17.6833333,0 Z M14.7916667,2.22222222 C14.4730408,2.22222222 14.2101029,2.50480384 14.1715363,2.87004602 L14.1620784,3.09079086 C14.1106114,3.80453536 13.6321621,4.37384494 13.0307902,4.43835284 L12.9166667,4.44444444 L7.91666667,4.44444444 C7.26264525,4.44444444 6.72593865,3.84914439 6.67125491,3.09079086 L6.66179703,2.87004602 C6.62644429,2.53524069 6.40255734,2.26989319 6.12006534,2.22799364 L6.04166667,2.22222222 L4.18333333,2.22222222 C3.06992728,2.22222222 2.15890085,3.08871241 2.08780018,4.18414664 L2.08333333,4.32222222 L2.08333333,35.6777778 C2.08333333,36.7911838 2.94982352,37.7022103 4.04525776,37.7733109 L4.18333333,37.7777778 L16.65,37.7777778 C17.7634061,37.7777778 18.6744325,36.9112876 18.7455331,35.8158534 L18.75,35.6777778 L18.75,4.32222222 C18.75,3.20881617 17.8835098,2.29778974 16.7880756,2.22668907 L16.65,2.22222222 L14.7916667,2.22222222 Z"
        fill="#000000"/>
</svg>