<?xml version="1.0" encoding="UTF-8"?>
<svg width="48" height="48" viewBox="0 0 48 48" xmlns="http://www.w3.org/2000/svg">
  <path d="M33.6754108,6.81643527 C35.6300595,7.66457518 37.4288607,8.83279113 38.997442,10.2727827 C42.6486178,13.6190933 44.5618305,17.8218138 44.9426778,22.7193011 C45.0909988,24.6278839 44.9567833,26.5394521 44.4780527,28.411356 C43.7659409,31.1959675 42.5310723,33.8530559 40.673854,36.0653059 C38.8670734,38.220405 36.5371085,39.8692499 33.977182,41.018238 C32.1909184,41.820056 30.2939483,42.3608567 28.3636381,42.6815839 C25.3531919,43.1831466 22.1901503,43.050932 19.183551,42.5719737 C15.3879011,41.9676247 12.0025917,40.4492885 9.13191778,37.8804854 C5.39439945,34.5363072 3.43844292,30.3024522 3.05374867,25.3435491 C2.91296079,23.5242269 3.04914826,21.6941212 3.45767763,19.9154971 C4.51943375,15.2773212 6.95369346,11.54247 10.8412426,8.78600736 C13.7478213,6.725591 17.1634788,5.54802743 20.7035207,5.21834375 C21.4417063,5.14967742 22.1867308,5.08527608 22.9338925,5.04262619 C26.5521556,4.83620071 30.3358373,5.37188337 33.6754108,6.81643527 Z M24.0140285,9.62066578 L24.0088992,9.62066578 C22.7359887,9.72217253 21.4549568,9.76439592 20.1918774,9.93755449 C17.5845053,10.2958136 15.1814485,11.2225958 13.0891393,12.8398798 C9.77307486,15.4027119 8.04836232,18.8270718 7.75556725,22.973068 C7.52090376,26.2937887 8.25524233,29.39273 10.1667453,32.1466336 C12.6505878,35.7262392 16.199606,37.5414187 20.4440658,38.1466207 C21.6112923,38.3132752 22.7845296,38.3331074 23.958368,38.329009 L25.1322064,38.3214853 L25.1322064,38.3214853 C26.8269983,38.3121023 28.4957164,38.0967203 30.1234006,37.6139235 C33.2642154,36.6815968 35.8617564,34.9623796 37.7595814,32.2703183 C39.2556145,30.1455006 40.0515042,27.7669161 40.2459885,25.1780675 C40.4242302,22.8075864 40.1074986,20.5138751 39.1688446,18.3293476 C37.4236151,14.2690777 34.3259715,11.723732 30.1379334,10.4391172 C28.1443624,9.82538527 26.0926597,9.57886889 24.0140285,9.62066578 Z M19.4823302,15.0674317 C19.7550357,15.0649247 19.9003646,15.156622 20.0401369,15.3835194 C22.4668452,19.3073096 24.8952632,23.2310999 27.3253911,27.1548901 C27.3796757,27.2436019 27.436525,27.3289017 27.4920919,27.4142014 L27.4920919,27.4142014 L27.5775795,27.3894645 L27.5788618,27.0559423 C27.5765822,23.1964113 27.5754423,19.3370224 27.5754423,15.4777757 C27.5754423,15.0738812 27.5762972,15.0738812 27.9733871,15.0738812 L27.9733871,15.0738812 L33.0278421,15.0738812 L33.0278421,32.8516364 C32.9171357,32.8584604 32.8089938,32.8708288 32.7004246,32.8708288 C31.0962496,32.8721083 29.4920745,32.8665639 27.8878995,32.8772571 C27.6860791,32.8793037 27.4978602,32.7759379 27.391644,32.6046935 C24.9472682,28.6666867 22.4997579,24.7299593 20.0491131,20.7945114 C19.9929327,20.6891133 19.9103107,20.6000599 19.8093203,20.5360531 L19.8093203,20.5360531 L19.8093203,32.8443859 L14.312467,32.8443859 L14.312467,15.0743077 L14.6924594,15.0743077 C16.2889405,15.0743077 17.8858491,15.0815582 19.4823302,15.0674317 Z"
        fill="#000000"/>
</svg>