<?xml version="1.0" encoding="UTF-8"?>
<svg width="48" height="48" viewBox="0 0 48 48" xmlns="http://www.w3.org/2000/svg">
  <path d="M23.2533333,24.5249293 L19.3193333,27.8472678 L16.0666667,27.8473594 L16.0666667,36 L10,36 L10,12 L19.45448,12 L23.2533333,15.3646589 L23.2533333,24.5249293 Z M17.1866667,16.5802268 L16.0666667,16.5802268 L16.0666667,23.2672242 L17.1866667,23.2672242 L17.1866667,16.5802268 Z M38,32.6107 L34.08,36 L28.48,36 L24.3733333,32.6107 L24.3733333,15.3893916 L27.92,12.0000916 L34.4533333,12.0000916 L38,15.3893916 L38,21.2519647 L31.84,21.2519647 L31.84,16.5802268 L30.6266667,16.5802268 L30.6266667,31.3282621 L31.84,31.3282621 L31.84,25.7404972 L38,25.7404972 L38,32.6107 Z"
        fill="#000000"/>
</svg>