<?xml version="1.0" encoding="UTF-8"?>
<svg width="48" height="48" viewBox="0 0 48 48" xmlns="http://www.w3.org/2000/svg">
  <path d="M42.6620576,31.1954966 C41.9197718,32.1214828 40.1011723,32.7820479 40.1011723,32.7820479 C40.1011723,32.7820479 26.5725791,37.5869326 26.5725791,37.5869326 C26.5725791,37.5869326 26.5725791,34.0434375 26.5725791,34.0434375 C26.5725791,34.0434375 36.528704,30.5357855 36.528704,30.5357855 C37.6585323,30.1355217 37.8320196,29.5696883 36.9136574,29.2726899 C35.9970207,28.9748376 34.3372363,29.0601833 33.2065444,29.462155 C33.2065444,29.462155 26.5725791,31.7724257 26.5725791,31.7724257 C26.5725791,31.7724257 26.5725791,28.0949381 26.5725791,28.0949381 C26.5725791,28.0949381 26.9549436,27.9669214 26.9549436,27.9669214 C26.9549436,27.9669214 28.87194,27.2961154 31.5674739,27.0008242 C34.2630077,26.7072395 37.563588,27.040936 40.1546852,28.0121542 C43.0746301,28.9244848 43.4034798,30.2695123 42.6620576,31.1954966 Z M19.209278,9 C21.8409398,9.48304957 25.6749309,10.6249563 27.7360701,11.3119786 C32.977817,13.0914064 34.7549868,15.3060926 34.7549868,20.2961748 C34.7549868,25.1599472 31.71852,27.0033843 27.8603608,25.161654 L27.8603608,16.0997942 L27.8603608,16.0997942 C27.8603608,15.0355509 27.6618415,14.0557981 26.6519876,13.7784288 C25.87863,13.5334903 25.3987323,14.2435549 25.3987323,15.3069448 L25.3987323,38 L25.3987323,38 C25.3987323,38 19.209278,36.0575638 19.209278,36.0575638 L19.209278,9 L19.209278,9 Z M40.6906848,35.0820769 C41.0782272,35.0820769 41.4416012,35.230577 41.7152108,35.504532 C41.9888224,35.7742192 42.1398685,36.1343738 42.1398685,36.516716 C42.1398685,36.9007642 41.9888224,37.259211 41.7152108,37.5289 C41.4416012,37.8011471 41.0782272,37.9496473 40.6906848,37.9496473 C40.3031423,37.9496473 39.94063,37.8011471 39.6661568,37.5289 C39.3925472,37.259211 39.2423646,36.9007642 39.2423646,36.516716 C39.2423646,35.7264264 39.8914315,35.0820769 40.6906848,35.0820769 Z M7.85230384,33.673043 C4.85467739,32.8383764 4.35579225,31.099059 5.72211607,30.0971167 C6.98486535,29.1719844 9.13231543,28.4755743 9.13231543,28.4755743 C9.13231543,28.4755743 18.0069465,25.3553856 18.0069465,25.3553856 C18.0069465,25.3553856 18.0069465,28.9125371 18.0069465,28.9125371 C18.0069465,28.9125371 11.6206992,31.1724551 11.6206992,31.1724551 C10.4925974,31.5727189 10.3191096,32.1394063 11.2357463,32.4364047 C12.1532462,32.7334012 13.8138951,32.6489113 14.9437232,32.2477935 C14.9437232,32.2477935 18.0069465,31.1485578 18.0069465,31.1485578 C18.0069465,31.1485578 18.0069465,34.3310481 18.0069465,34.3310481 C17.8127448,34.3651853 17.5961004,34.3993224 17.3958558,34.4326075 C14.3317689,34.9276048 11.0683005,34.7210721 7.85230384,33.673043 L7.85230384,33.673043 Z"
        fill="#000000"/>
</svg>