<?xml version="1.0" encoding="UTF-8"?>
<svg width="48" height="48" viewBox="0 0 48 48" xmlns="http://www.w3.org/2000/svg">
  <path d="M12.7745328,12.6007426 L12.7593916,12.6142 L12.7593916,12.6158822 C9.70973751,15.6181146 7.99476832,19.7199135 8.00001476,23.9991455 C7.9952492,27.5011078 9.14467936,30.9070637 11.2705138,33.6901431 C11.2923843,33.7170578 11.3260313,33.7321974 11.3563135,33.7170578 C11.3849135,33.7002361 11.3865958,33.6649105 11.3748194,33.6346314 C10.1551172,29.8631999 16.3898983,20.7222729 19.6115944,16.8902833 C19.6216885,16.8768259 19.6351472,16.8616863 19.6351472,16.8431824 C19.6351472,16.8213142 19.6200061,16.8044925 19.604865,16.7910351 C14.1860226,11.3979891 12.7392035,12.6310217 12.7593916,12.6142 M35.227147,12.6007426 L35.2422881,12.6142 L35.2422881,12.6158822 C38.2916445,15.6181778 40.0060517,19.7200824 39.9999839,23.9991455 C40.0047482,27.5011078 38.8553181,30.9070637 36.7294836,33.6901431 C36.7092954,33.7170578 36.6739661,33.7321974 36.6436839,33.7170578 C36.6167663,33.7002361 36.615084,33.6649105 36.6251781,33.6346314 C37.8448802,29.8631999 31.6151462,20.7155442 28.3951324,16.8818724 C28.383356,16.868415 28.3715796,16.8532755 28.3715796,16.8364537 C28.3715796,16.8129033 28.3850383,16.7960816 28.4018618,16.7826242 C33.8223866,11.3895782 35.2591116,12.6310217 35.2406058,12.6142 M24.0008399,8 C27.2292654,8 29.8856926,8.8848229 32.3351911,10.3415845 C32.3654733,10.3567241 32.3738851,10.3903676 32.3621086,10.4206467 C32.3503322,10.4492436 32.3166852,10.4559723 32.2847206,10.4475614 C29.1875183,9.77805665 24.4786267,12.4543936 24.0344868,12.7218591 C24.0243928,12.7285878 24.0142987,12.7353164 24.0008399,12.7353164 C23.9856988,12.7353164 23.9756047,12.7285878 23.9655106,12.7218591 C22.7845024,12.0439434 18.4322685,9.7629171 15.6917239,10.4643832 C15.6614417,10.4711119 15.6277947,10.4660653 15.6143359,10.4357862 C15.6024701,10.4064039 15.613923,10.3727643 15.6412535,10.3567241 C18.0907519,8.8848229 20.7808261,8 24.0008399,8 M24.0008399,20.8316142 C24.0193457,20.8316142 24.0395339,20.8467537 24.0513103,20.8568467 C28.8392723,24.4970687 37.0339886,33.4966932 34.5323373,36.0418207 L34.535702,36.0384563 L34.5340197,36.0418207 L34.530655,36.0418207 C31.6183185,38.597819 27.8742273,40.0049963 23.9991575,39.9999867 C20.1236483,40.0046337 16.3791527,38.5975292 13.4659777,36.0418207 L13.462613,36.0384563 L13.4659777,36.0418207 C10.9693735,33.4966932 19.1624075,24.4970687 23.9453224,20.8568467 C23.9587812,20.8467537 23.9806517,20.8316142 24.0008399,20.8316142"
        fill="#000000"/>
</svg>